<svg width="34" height="34" viewBox="0 0 34 34" fill="none" xmlns="http://www.w3.org/2000/svg">
<path fill-rule="evenodd" clip-rule="evenodd" d="M32.1109 11.6094H1.88867V27.7972C1.89117 28.9411 2.3467 30.0375 3.15559 30.8463C3.96448 31.6552 5.06085 32.1108 6.20478 32.1133H27.7948C28.9387 32.1108 30.0351 31.6552 30.844 30.8463C31.6529 30.0375 32.1084 28.9411 32.1109 27.7972V11.6094ZM9.44423 28.3355C9.22862 28.3374 9.01734 28.275 8.83729 28.1564C8.65724 28.0378 8.51657 27.8682 8.4332 27.6694C8.34982 27.4705 8.32752 27.2514 8.36913 27.0398C8.41073 26.8283 8.51437 26.6339 8.66683 26.4814C8.81929 26.329 9.01368 26.2253 9.22524 26.1837C9.4368 26.1421 9.65596 26.1644 9.8548 26.2478C10.0536 26.3312 10.2232 26.4718 10.3418 26.6519C10.4604 26.8319 10.5228 27.0432 10.5209 27.2588C10.5209 27.5444 10.4075 27.8182 10.2055 28.0201C10.0036 28.2221 9.72978 28.3355 9.44423 28.3355ZM9.44423 22.9427C9.22902 22.9446 9.01811 22.8825 8.83827 22.7643C8.65842 22.6461 8.51774 22.4771 8.43408 22.2788C8.35043 22.0805 8.32757 21.8619 8.3684 21.6506C8.40924 21.4393 8.51193 21.2448 8.66344 21.092C8.81495 20.9392 9.00846 20.8348 9.2194 20.7921C9.43033 20.7494 9.6492 20.7704 9.84821 20.8523C10.0472 20.9342 10.2174 21.0734 10.3372 21.2522C10.4569 21.431 10.5209 21.6414 10.5209 21.8566C10.5221 21.9992 10.4953 22.1407 10.4418 22.273C10.3884 22.4052 10.3094 22.5256 10.2095 22.6274C10.1095 22.7291 9.99045 22.8101 9.85915 22.8659C9.72785 22.9216 9.58686 22.9509 9.44423 22.9522V22.9427ZM9.44423 17.5405C9.23128 17.5405 9.02312 17.4773 8.84606 17.359C8.66901 17.2407 8.53101 17.0726 8.44952 16.8758C8.36803 16.6791 8.34671 16.4626 8.38825 16.2538C8.42979 16.0449 8.53233 15.8531 8.68291 15.7025C8.83348 15.5519 9.02533 15.4494 9.23418 15.4078C9.44303 15.3663 9.65952 15.3876 9.85625 15.4691C10.053 15.5506 10.2211 15.6886 10.3394 15.8657C10.4577 16.0427 10.5209 16.2509 10.5209 16.4638C10.5221 16.606 10.4952 16.747 10.4417 16.8787C10.3881 17.0105 10.309 17.1303 10.2089 17.2313C10.1088 17.3322 9.98969 17.4124 9.85844 17.4671C9.7272 17.5218 9.58642 17.5499 9.44423 17.5499V17.5405ZM22.3926 28.3355H13.7603C13.491 28.3103 13.2407 28.1855 13.0585 27.9855C12.8764 27.7854 12.7754 27.5246 12.7754 27.2541C12.7754 26.9836 12.8764 26.7228 13.0585 26.5227C13.2407 26.3227 13.491 26.1979 13.7603 26.1727H22.3926C22.5431 26.1586 22.6948 26.1761 22.8382 26.2241C22.9816 26.272 23.1133 26.3493 23.2251 26.4511C23.3368 26.5529 23.4261 26.6769 23.4872 26.8152C23.5483 26.9534 23.5798 27.1029 23.5798 27.2541C23.5798 27.4053 23.5483 27.5548 23.4872 27.693C23.4261 27.8313 23.3368 27.9553 23.2251 28.0571C23.1133 28.1589 22.9816 28.2362 22.8382 28.2841C22.6948 28.3321 22.5431 28.3496 22.3926 28.3355ZM12.6837 21.866C12.6824 21.7239 12.7094 21.5828 12.7629 21.4511C12.8165 21.3194 12.8956 21.1996 12.9957 21.0986C13.0958 20.9976 13.2149 20.9175 13.3461 20.8628C13.4774 20.8081 13.6182 20.7799 13.7603 20.7799H20.2392C20.5086 20.8051 20.7589 20.93 20.941 21.13C21.1232 21.33 21.2242 21.5908 21.2242 21.8613C21.2242 22.1319 21.1232 22.3927 20.941 22.5927C20.7589 22.7927 20.5086 22.9175 20.2392 22.9427H13.7603C13.4756 22.9402 13.2031 22.826 13.0017 22.6246C12.8004 22.4233 12.6861 22.1508 12.6837 21.866ZM24.5553 17.5499H13.7603C13.4748 17.5499 13.2009 17.4365 12.999 17.2346C12.7971 17.0327 12.6837 16.7588 12.6837 16.4733C12.6837 16.1877 12.7971 15.9139 12.999 15.7119C13.2009 15.51 13.4748 15.3966 13.7603 15.3966H24.5553C24.8409 15.3966 25.1147 15.51 25.3167 15.7119C25.5186 15.9139 25.632 16.1877 25.632 16.4733C25.632 16.7588 25.5186 17.0327 25.3167 17.2346C25.1147 17.4365 24.8409 17.5499 24.5553 17.5499Z" fill="#377C8A"/>
<path fill-rule="evenodd" clip-rule="evenodd" d="M32.1109 9.44618V6.20674C32.1084 5.0628 31.6529 3.96643 30.844 3.15754C30.0351 2.34865 28.9387 1.89312 27.7948 1.89062H6.20478C5.06085 1.89312 3.96448 2.34865 3.15559 3.15754C2.3467 3.96643 1.89117 5.0628 1.88867 6.20674V9.44618H32.1109ZM26.7181 5.13007C26.9307 5.13193 27.1379 5.19666 27.3137 5.31609C27.4895 5.43553 27.626 5.60432 27.7061 5.80122C27.7861 5.99811 27.8061 6.21429 27.7635 6.42251C27.7209 6.63074 27.6176 6.8217 27.4667 6.97133C27.3157 7.12096 27.1239 7.22257 26.9153 7.26335C26.7067 7.30414 26.4907 7.28227 26.2945 7.20051C26.0983 7.11875 25.9307 6.98075 25.8128 6.80391C25.6949 6.62706 25.632 6.41928 25.632 6.20674C25.632 6.06455 25.6602 5.92377 25.7149 5.79252C25.7696 5.66127 25.8497 5.54216 25.9507 5.44206C26.0517 5.34196 26.1715 5.26285 26.3032 5.2093C26.4349 5.15575 26.5759 5.12882 26.7181 5.13007ZM22.3926 5.13007C22.6055 5.13007 22.8137 5.19321 22.9907 5.31152C23.1678 5.42983 23.3058 5.59798 23.3873 5.79471C23.4688 5.99145 23.4901 6.20793 23.4485 6.41678C23.407 6.62564 23.3045 6.81748 23.1539 6.96805C23.0033 7.11863 22.8115 7.22117 22.6026 7.26271C22.3938 7.30426 22.1773 7.28294 21.9805 7.20145C21.7838 7.11996 21.6157 6.98196 21.4973 6.8049C21.379 6.62784 21.3159 6.41968 21.3159 6.20674C21.3159 5.92119 21.4293 5.64733 21.6312 5.44542C21.8332 5.2435 22.107 5.13007 22.3926 5.13007ZM7.28145 5.13007H11.607C11.8926 5.13007 12.1664 5.2435 12.3683 5.44542C12.5702 5.64733 12.6837 5.92119 12.6837 6.20674C12.6837 6.49229 12.5702 6.76614 12.3683 6.96805C12.1664 7.16997 11.8926 7.2834 11.607 7.2834H7.28145C6.9959 7.2834 6.72205 7.16997 6.52013 6.96805C6.31822 6.76614 6.20478 6.49229 6.20478 6.20674C6.20478 5.92119 6.31822 5.64733 6.52013 5.44542C6.72205 5.2435 6.9959 5.13007 7.28145 5.13007Z" fill="#377C8A"/>
</svg>
