<svg width="34" height="34" viewBox="0 0 34 34" fill="none" xmlns="http://www.w3.org/2000/svg">
<g clip-path="url(#clip0_40_525)">
<path d="M29.0209 4.97921C25.81 1.76833 21.5409 0 17 0C12.4591 0 8.19002 1.76833 4.97914 4.97921C1.76827 8.19008 0 12.4591 0 17C0 21.5409 1.76827 25.81 4.97914 29.0208C8.19002 32.2316 12.4591 34 17 34C21.5409 34 25.81 32.2317 29.0209 29.0208C32.2317 25.8099 34 21.5409 34 17C34 12.4591 32.2317 8.19002 29.0209 4.97921ZM17 30.6632C9.46601 30.6632 3.33678 24.5339 3.33678 17C3.33678 16.9876 3.33718 16.9754 3.33725 16.9632C3.33725 16.9601 3.33678 16.9571 3.33678 16.954C3.33678 16.9487 3.33745 16.9437 3.33758 16.9385C3.37071 9.49483 9.38626 3.43878 16.8143 3.33917C16.8299 3.33844 16.8453 3.33685 16.861 3.33685C16.8704 3.33685 16.8796 3.33798 16.889 3.33824C16.926 3.33798 16.9629 3.33685 17.0001 3.33685C24.5341 3.33685 30.6633 9.46614 30.6633 17.0001C30.6633 24.534 24.534 30.6632 17 30.6632Z" fill="#387C8A"/>
<path d="M27.3788 17.8189C26.8232 17.8189 26.3728 17.3685 26.3728 16.8129C26.3728 16.2574 26.8232 15.807 27.3788 15.807H28.5913C28.0218 10.2238 23.4938 5.79474 17.8672 5.37891V6.43443C17.8672 6.98999 17.4168 7.44036 16.8613 7.44036C16.3057 7.44036 15.8554 6.98999 15.8554 6.43443V5.40295C10.312 5.94615 5.89648 10.3902 5.39691 15.946H6.48278C7.03834 15.946 7.4887 16.3964 7.4887 16.9519C7.4887 17.5075 7.03834 17.9578 6.48278 17.9578H5.38867C5.85119 23.6031 10.3553 28.121 15.9944 28.6056V27.3304C15.9944 26.7748 16.4448 26.3244 17.0003 26.3244C17.5559 26.3244 18.0063 26.7748 18.0063 27.3304V28.6056C23.6916 28.117 28.2231 23.5287 28.6224 17.8189H27.3788ZM21.0724 14.3486L17.7117 17.7094C17.523 17.898 17.2672 18.004 17.0004 18.004C16.7336 18.004 16.4777 17.898 16.2891 17.7094L10.4392 11.8594C10.0463 11.4666 10.0463 10.8297 10.4392 10.4369C10.832 10.044 11.4689 10.044 11.8618 10.4369L17.0005 15.5755L19.6499 12.926C20.0427 12.5332 20.6796 12.5332 21.0725 12.926C21.4652 13.3188 21.4652 13.9558 21.0724 14.3486Z" fill="#387C8A"/>
</g>
<defs>
<clipPath id="clip0_40_525">
<rect width="34" height="34" fill="white"/>
</clipPath>
</defs>
</svg>
