<svg width="31" height="31" viewBox="0 0 31 31" fill="none" xmlns="http://www.w3.org/2000/svg">
<g clip-path="url(#clip0_40_538)">
<path d="M5.47949 13.4746V9.05469H4.82861C2.16613 9.05469 0 11.2208 0 13.8833V28.3389C0 28.7062 0.221299 29.0373 0.560664 29.1779C0.673039 29.2245 0.791045 29.2471 0.908021 29.2471C1.1444 29.2471 1.37671 29.1549 1.55042 28.981L4.93239 25.5991H18.8755C21.538 25.5991 23.7041 23.4331 23.7041 20.7705V20.1196H12.1245C8.4604 20.1196 5.47949 17.1387 5.47949 13.4746Z" fill="#377C8A"/>
<path d="M26.1724 1.75781H12.1255C9.463 1.75781 7.29688 3.92388 7.29688 6.58643V13.4736C7.29688 16.1362 9.463 18.3022 12.1255 18.3022H26.0686L29.4506 21.6842C29.6243 21.8579 29.8566 21.9503 30.0929 21.9502C30.2099 21.9502 30.3279 21.9276 30.4403 21.8811C30.7796 21.7405 31.0009 21.4093 31.0009 21.042V6.58643C31.001 3.92388 28.8349 1.75781 26.1724 1.75781ZM13.677 10.8701C13.1679 10.8701 12.7908 10.454 12.7688 9.96191C12.7468 9.47142 13.202 9.05371 13.677 9.05371C14.1861 9.05371 14.5632 9.46985 14.5852 9.96191C14.6072 10.4524 14.1521 10.8701 13.677 10.8701ZM19.1489 10.8701C18.6398 10.8701 18.2628 10.454 18.2407 9.96191C18.2187 9.47142 18.6739 9.05371 19.1489 9.05371C19.6581 9.05371 20.0351 9.46985 20.0571 9.96191C20.0791 10.4524 19.624 10.8701 19.1489 10.8701ZM24.6208 10.8701C24.1117 10.8701 23.7347 10.454 23.7126 9.96191C23.6907 9.47142 24.1458 9.05371 24.6208 9.05371C25.13 9.05371 25.507 9.46985 25.5291 9.96191C25.551 10.4524 25.0959 10.8701 24.6208 10.8701Z" fill="#377C8A"/>
</g>
<defs>
<clipPath id="clip0_40_538">
<rect width="31" height="31" fill="white"/>
</clipPath>
</defs>
</svg>
