<svg width="34" height="33" viewBox="0 0 34 33" fill="none" xmlns="http://www.w3.org/2000/svg">
<path d="M23.1875 23.3134V20.1949C22.5014 20.1321 21.851 19.8602 21.3243 19.416C20.7976 18.9718 20.4199 18.3767 20.2422 17.7109L19.8125 18.1384V21.0634C19.8134 21.8091 20.11 22.5239 20.6372 23.0512C21.1645 23.5784 21.8794 23.875 22.625 23.8759C22.7742 23.8759 22.9173 23.8167 23.0227 23.7112C23.1282 23.6057 23.1875 23.4626 23.1875 23.3134Z" fill="#377C8A"/>
<path d="M12.5059 15.9353C12.6116 15.8823 12.7313 15.8639 12.848 15.8828C12.9648 15.9017 13.0726 15.9569 13.1562 16.0405L14.1872 17.0716V16.562C14.1864 16.1926 14.2583 15.8267 14.3989 15.4852C14.5395 15.1437 14.746 14.8332 15.0066 14.5714C15.5329 14.0428 16.2476 13.7449 16.9935 13.7433C17.7395 13.7416 18.4555 14.0364 18.9841 14.5627C19.5127 15.089 19.8106 15.8037 19.8122 16.5496L20.3213 16.0405C20.4047 15.9561 20.5127 15.9003 20.6299 15.881C20.747 15.8617 20.8672 15.8799 20.9733 15.9331C21.0795 15.9863 21.166 16.0717 21.2207 16.1771C21.2753 16.2824 21.2952 16.4024 21.2775 16.5198C21.2114 16.9871 21.2939 17.4634 21.5133 17.8813C21.7328 18.2991 22.0781 18.6374 22.5004 18.8482C22.9227 19.059 23.4006 19.1317 23.8665 19.0559C24.3323 18.9802 24.7626 18.7598 25.0963 18.4261C25.4301 18.0923 25.6504 17.6621 25.7262 17.1962C25.8019 16.7303 25.7292 16.2525 25.5184 15.8302C25.3076 15.4079 24.9694 15.0626 24.5515 14.8431C24.1337 14.6236 23.6574 14.5411 23.19 14.6073C23.0727 14.625 22.9527 14.6051 22.8473 14.5504C22.7419 14.4958 22.6565 14.4092 22.6034 14.3031C22.5502 14.197 22.5319 14.0767 22.5512 13.9596C22.5705 13.8425 22.6264 13.7345 22.7108 13.651L26.29 10.0662L23.7688 7.54566C23.5362 8.03288 23.19 8.45716 22.7593 8.78288C22.3287 9.10859 21.8262 9.32624 21.2941 9.41755C20.7619 9.50885 20.2156 9.47114 19.701 9.3076C19.1865 9.14405 18.7187 8.85943 18.3369 8.47764C17.9551 8.09585 17.6705 7.62803 17.5069 7.11346C17.3434 6.59889 17.3056 6.05259 17.397 5.52043C17.4883 4.98827 17.7059 4.48579 18.0316 4.05516C18.3573 3.62454 18.7816 3.27835 19.2688 3.04566L16.741 0.527344L13.1562 4.10653C13.0727 4.19095 12.9647 4.2468 12.8476 4.26609C12.7304 4.28539 12.6102 4.26714 12.5041 4.21395C12.398 4.16077 12.3114 4.07538 12.2568 3.97C12.2021 3.86462 12.1822 3.74466 12.1999 3.62728C12.249 3.28218 12.2172 2.9304 12.1071 2.59967C11.997 2.26895 11.8116 1.96833 11.5654 1.72153C11.1366 1.31299 10.567 1.0851 9.97466 1.0851C9.38235 1.0851 8.81276 1.31299 8.38391 1.72153C8.05135 2.05561 7.83211 2.4857 7.75714 2.95108C7.68218 3.41647 7.75527 3.89364 7.96611 4.31525C8.17694 4.73686 8.51487 5.0816 8.93218 5.30081C9.34949 5.52002 9.82512 5.60263 10.2919 5.53697C10.4093 5.51929 10.5292 5.53919 10.6346 5.59383C10.74 5.64847 10.8254 5.73504 10.8786 5.84116C10.9318 5.94728 10.95 6.06751 10.9307 6.18463C10.9114 6.30175 10.8556 6.40977 10.7712 6.49322L7.19141 10.0707L10.7717 13.6555C10.8562 13.739 10.9121 13.8471 10.9314 13.9643C10.9507 14.0815 10.9324 14.2018 10.8791 14.3079C10.8259 14.4141 10.7404 14.5007 10.6349 14.5552C10.5294 14.6098 10.4093 14.6296 10.2919 14.6118C9.82458 14.5456 9.34828 14.6281 8.93042 14.8476C8.51256 15.0671 8.1743 15.4124 7.96349 15.8347C7.75269 16.257 7.68002 16.7348 7.75578 17.2007C7.83153 17.6666 8.05187 18.0968 8.38562 18.4306C8.71936 18.7643 9.14961 18.9847 9.61548 19.0604C10.0813 19.1362 10.5592 19.0635 10.9815 18.8527C11.4038 18.6419 11.7491 18.3036 11.9686 17.8858C12.1881 17.4679 12.2705 16.9916 12.2044 16.5243C12.186 16.4068 12.2052 16.2866 12.2594 16.1808C12.3136 16.075 12.3999 15.9891 12.5059 15.9353Z" fill="#377C8A"/>
<path d="M18.8648 30.6987L19.4273 29.5737C19.6995 29.0267 19.8411 28.424 19.8411 27.8131C19.8411 27.2021 19.6995 26.5994 19.4273 26.0524L19.2214 25.6396C18.8709 24.9361 18.688 24.1609 18.687 23.3749V16.5625C18.687 16.1149 18.5093 15.6857 18.1928 15.3693C17.8763 15.0528 17.4471 14.875 16.9995 14.875C16.552 14.875 16.1228 15.0528 15.8063 15.3693C15.4898 15.6857 15.312 16.1149 15.312 16.5625V24.4375C15.312 24.5867 15.2528 24.7298 15.1473 24.8352C15.0418 24.9407 14.8987 25 14.7495 25C14.6004 25 14.4573 24.9407 14.3518 24.8352C14.2463 24.7298 14.187 24.5867 14.187 24.4375V18.6629L13.2342 17.7106C13.0424 18.4278 12.6191 19.0615 12.03 19.5134C11.441 19.9652 10.7191 20.2098 9.97673 20.2092C9.91711 20.2092 9.85917 20.2036 9.80011 20.2007L8.42423 24.1607C8.31066 24.4038 8.25595 24.6702 8.26455 24.9384C8.27315 25.2066 8.34481 25.4689 8.47373 25.7042C8.48388 25.7224 8.4929 25.7412 8.50074 25.7605L10.4745 30.4315C10.6955 30.844 10.8114 31.3046 10.812 31.7725V32.3125H18.687V31.453C18.6873 31.1912 18.7481 30.933 18.8648 30.6987Z" fill="#377C8A"/>
<path d="M33.3125 10.9375H29.9375C29.7883 10.9375 29.6452 10.8782 29.5398 10.7727C29.4343 10.6673 29.375 10.5242 29.375 10.375C29.375 10.2258 29.4343 10.0827 29.5398 9.97725C29.6452 9.87176 29.7883 9.8125 29.9375 9.8125H33.3125C33.4617 9.8125 33.6048 9.87176 33.7102 9.97725C33.8157 10.0827 33.875 10.2258 33.875 10.375C33.875 10.5242 33.8157 10.6673 33.7102 10.7727C33.6048 10.8782 33.4617 10.9375 33.3125 10.9375Z" fill="#377C8A"/>
<path d="M29.3301 4.46689C29.2062 4.46688 29.0859 4.42602 28.9876 4.35064C28.8894 4.27526 28.8188 4.16957 28.7867 4.04997C28.7547 3.93037 28.763 3.80354 28.8104 3.68914C28.8578 3.57474 28.9416 3.47918 29.0488 3.41726L31.9738 1.72976C32.1029 1.65634 32.2559 1.63698 32.3992 1.6759C32.5426 1.71482 32.6647 1.80886 32.739 1.9375C32.8132 2.06613 32.8336 2.21892 32.7956 2.36253C32.7577 2.50613 32.6644 2.62889 32.5363 2.70401L29.6113 4.39151C29.5259 4.44108 29.4288 4.46709 29.3301 4.46689Z" fill="#377C8A"/>
<path d="M32.2524 19.0917C32.1537 19.0919 32.0566 19.0659 31.9712 19.0163L29.0462 17.3288C28.9817 17.2922 28.9251 17.2431 28.8797 17.1845C28.8342 17.1259 28.8008 17.0588 28.7814 16.9872C28.7619 16.9156 28.7568 16.8409 28.7664 16.7673C28.776 16.6938 28.8 16.6228 28.8371 16.5586C28.8742 16.4943 28.9236 16.4381 28.9825 16.393C29.0415 16.3479 29.1087 16.315 29.1804 16.296C29.2522 16.2771 29.3269 16.2725 29.4004 16.2825C29.4739 16.2926 29.5447 16.3171 29.6087 16.3546L32.5337 18.0421C32.6409 18.104 32.7247 18.1996 32.7721 18.314C32.8195 18.4284 32.8278 18.5552 32.7958 18.6748C32.7637 18.7944 32.6931 18.9001 32.5949 18.9755C32.4966 19.0508 32.3763 19.0917 32.2524 19.0917Z" fill="#377C8A"/>
<path d="M4.0625 10.9375H0.6875C0.538316 10.9375 0.395242 10.8782 0.289752 10.7727C0.184263 10.6673 0.125 10.5242 0.125 10.375C0.125 10.2258 0.184263 10.0827 0.289752 9.97725C0.395242 9.87176 0.538316 9.8125 0.6875 9.8125H4.0625C4.21168 9.8125 4.35476 9.87176 4.46025 9.97725C4.56574 10.0827 4.625 10.2258 4.625 10.375C4.625 10.5242 4.56574 10.6673 4.46025 10.7727C4.35476 10.8782 4.21168 10.9375 4.0625 10.9375Z" fill="#377C8A"/>
<path d="M4.66982 4.46689C4.57105 4.46709 4.47399 4.44108 4.38857 4.39151L1.46357 2.70401C1.33543 2.62889 1.2422 2.50613 1.20423 2.36253C1.16627 2.21892 1.18664 2.06613 1.26091 1.9375C1.33518 1.80886 1.45732 1.71482 1.60067 1.6759C1.74402 1.63698 1.89694 1.65634 2.02607 1.72976L4.95107 3.41726C5.0583 3.47918 5.1421 3.57474 5.18948 3.68914C5.23686 3.80354 5.24517 3.93037 5.21312 4.04997C5.18108 4.16957 5.11046 4.27526 5.01223 4.35064C4.914 4.42602 4.79364 4.46688 4.66982 4.46689Z" fill="#377C8A"/>
<path d="M1.74802 19.0917C1.6242 19.0917 1.50384 19.0508 1.40561 18.9755C1.30738 18.9001 1.23676 18.7944 1.20471 18.6748C1.17267 18.5552 1.18098 18.4284 1.22836 18.314C1.27574 18.1996 1.35954 18.104 1.46677 18.0421L4.39177 16.3546C4.45577 16.3171 4.52655 16.2926 4.60005 16.2825C4.67355 16.2725 4.74831 16.2771 4.82003 16.296C4.89175 16.315 4.95901 16.3479 5.01794 16.393C5.07686 16.4381 5.1263 16.4943 5.16339 16.5586C5.20048 16.6228 5.2245 16.6938 5.23406 16.7673C5.24362 16.8409 5.23854 16.9156 5.2191 16.9872C5.19967 17.0588 5.16626 17.1259 5.12081 17.1845C5.07536 17.2431 5.01876 17.2922 4.95427 17.3288L2.02927 19.0163C1.94385 19.0659 1.84679 19.0919 1.74802 19.0917Z" fill="#377C8A"/>
</svg>
