<svg width="128" height="62" viewBox="0 0 128 62" fill="none" xmlns="http://www.w3.org/2000/svg">
<path d="M112.542 0.738416C112.636 0.9729 113.761 2.84877 114.981 4.95913L117.185 8.85156H122.109H127.033L126.002 7.06948C125.439 6.13155 124.313 4.20878 123.516 2.84877L122.015 0.410138H117.185C114.512 0.410138 112.448 0.550829 112.542 0.738416Z" fill="white"/>
<path d="M97.8594 9.13103C97.8594 9.69379 105.597 23.1532 106.582 24.2787L107.614 25.498L117.04 25.6387C122.246 25.7325 126.466 25.6856 126.466 25.5449C126.466 25.4511 125.388 23.5283 124.075 21.3242L121.636 17.2911H116.665H111.694L109.349 13.0704L107.004 8.84965H102.455C99.9228 8.84965 97.8594 8.99034 97.8594 9.13103Z" fill="white"/>
<path d="M8.71065 17.7139C4.06787 19.5429 1.72303 22.4974 1.72303 26.4836C1.72303 32.3457 3.78649 34.2216 12.9783 36.9416C19.45 38.8175 20.8569 40.412 18.3714 42.8506C17.4804 43.7885 16.7769 44.023 14.8541 44.023C12.7907 44.023 12.2279 43.7885 11.0555 42.663C10.3051 41.9127 9.69548 40.9278 9.69548 40.5527C9.69548 39.943 8.99203 39.8023 5.28718 39.8023H0.925781L1.25406 41.5375C1.95751 45.5237 5.14649 48.9941 9.32031 50.401C12.0403 51.292 17.3866 51.3858 19.8721 50.5417C21.9824 49.8851 24.6087 48.2906 25.7342 46.9775C28.0321 44.4451 28.6887 39.2396 27.0942 36.1444C25.4059 32.8147 23.2018 31.4547 17.1521 29.954C11.6183 28.594 10.6803 28.125 10.3051 26.765C9.69548 24.3264 12.1341 23.0602 15.6045 23.9043C17.1052 24.2795 17.7617 24.7953 18.4183 26.0147L19.3093 27.6091H23.3894C27.8914 27.6091 27.9852 27.5154 27.0004 24.936C26.2032 22.7319 24.1866 20.1994 22.5452 19.2146C18.5121 16.8229 12.6031 16.1663 8.71065 17.7139Z" fill="white"/>
<path d="M75.5838 17.4325C70.8003 19.027 67.5644 21.6532 65.0789 25.8739L63.8127 28.0781L62.6871 25.6863C60.3892 20.5746 55.934 17.667 49.8843 17.3856C45.8043 17.1511 42.8967 17.7608 39.6139 19.4021L37.4098 20.5277L36.2373 19.1208C35.2056 17.9014 34.7835 17.7608 32.4856 17.7608H29.8594V39.8023V61.8438H34.5491H39.2387V55.2782C39.2387 51.6671 39.3325 48.7126 39.4263 48.7126C39.5201 48.7126 40.3643 49.0409 41.3491 49.463C49.6029 52.8865 59.4044 49.5568 62.7809 42.1002L63.8127 39.8023L65.1258 42.2409C69.5341 50.4947 80.3203 53.6837 88.4335 49.1347C89.7935 48.3375 90.9659 47.7747 91.0597 47.8685C91.1066 47.9623 91.4349 48.4782 91.7163 49.0409C92.1852 49.9789 92.6073 50.1195 95.2804 50.1195H98.3287V33.9402V17.7608H95.2804C93.5921 17.7608 92.2321 17.9483 92.2321 18.1359C92.2321 18.3704 91.9507 18.8863 91.6225 19.4021C91.0128 20.1994 90.8252 20.1525 87.8238 18.6987C85.2445 17.4325 84.0252 17.1042 81.0707 16.9635C78.9134 16.8697 76.7093 17.0573 75.5838 17.4325ZM49.6967 25.3111C51.7602 25.8739 54.4802 28.0781 55.465 30.0946C56.7312 32.4395 56.4499 36.1912 54.9023 38.7705C50.7285 45.5706 40.4112 44.023 38.3477 36.2381C37.1753 31.8298 39.7546 27.0932 44.2098 25.4987C46.4608 24.7015 47.3988 24.6546 49.6967 25.3111ZM83.5093 25.3111C84.4941 25.5925 86.1355 26.5774 87.1673 27.5622C93.1232 33.096 89.1369 43.085 80.9769 43.085C75.021 43.085 70.5189 37.4105 72.0196 31.8767C72.723 29.3443 75.4431 26.3898 77.9286 25.4987C80.2265 24.7015 81.1645 24.6546 83.5093 25.3111Z" fill="white"/>
</svg>
