<svg width="280" height="328" viewBox="0 0 280 328" fill="none" xmlns="http://www.w3.org/2000/svg">
<g opacity="0.1">
<path d="M190.821 4.88296C192.034 7.91537 206.59 32.1747 222.358 59.4665L250.863 109.805H314.544H378.225L364.882 86.7583C357.604 74.6286 343.048 49.7628 332.738 32.1747L313.331 0.637566H250.863C216.293 0.637566 189.608 2.45702 190.821 4.88296Z" fill="white"/>
<path d="M0.925781 113.445C0.925781 120.723 100.996 294.784 113.732 309.34L127.074 325.108L248.978 326.928C316.297 328.141 370.881 327.534 370.881 325.715C370.881 324.502 356.932 299.636 339.95 271.131L308.413 218.973H244.126H179.839L149.514 164.39L119.19 109.806H60.3612C27.6111 109.806 0.925781 111.626 0.925781 113.445Z" fill="white"/>
</g>
</svg>
