<svg width="152" height="328" viewBox="0 0 152 328" fill="none" xmlns="http://www.w3.org/2000/svg">
<g opacity="0.1">
<path d="M-36.2083 5.21108C-34.9953 8.2435 -20.4397 32.5029 -4.67112 59.7946L23.8336 110.133H87.5144H151.195L137.853 87.0864C130.575 74.9567 116.019 50.0909 105.709 32.5029L86.3015 0.965691H23.8336C-10.736 0.965691 -37.4213 2.78515 -36.2083 5.21108Z" fill="white"/>
<path d="M-226.104 113.773C-226.104 121.051 -126.034 295.112 -113.298 309.668L-99.9549 325.436L21.9484 327.256C89.2681 328.469 143.852 327.862 143.852 326.043C143.852 324.83 129.903 299.964 112.921 271.459L81.3839 219.302H17.0965H-47.1908L-77.515 164.718L-107.839 110.134H-166.668C-199.418 110.134 -226.104 111.954 -226.104 113.773Z" fill="white"/>
</g>
</svg>
